<svg id="Layer_1" data-name="Layer 1" xmlns="http://www.w3.org/2000/svg" viewBox="0 0 32 32"><defs><style>.cls-1{fill:#ffe200;}</style></defs><title>icon-32x32-01</title><path class="cls-1" d="M2.07,18.8a2.52,2.52,0,0,1-.64-.07A8.49,8.49,0,0,1,1.06,16c0-.19,0-.37,0-.55a4,4,0,0,0-.63.27l-.07,0,0-.07A2.74,2.74,0,0,1,0,14a8.37,8.37,0,0,1,3.18-.57c.28,0,.54,0,.76,0a1,1,0,0,1,.3.81,2.58,2.58,0,0,1-.2,1l0,.05-.31,0-.36,0H2.91v.21a13.86,13.86,0,0,0,.31,3.14l0,.08-.09,0A4.58,4.58,0,0,1,2.07,18.8Zm-.56-3.66c0,.26,0,.52,0,.81a10.9,10.9,0,0,0,.24,2.48c0-.05.2-.05.35-.05a4.23,4.23,0,0,0,.66-.05,14.61,14.61,0,0,1-.24-2.9v-.61h.09c.23,0,.57,0,.78,0h.41a2.34,2.34,0,0,0,.07-.57,1.17,1.17,0,0,0-.08-.45,3,3,0,0,1-.56,0,10,10,0,0,0-2.84.41,2,2,0,0,0,.19.91,3.32,3.32,0,0,1,.72-.2l.24,0Z"/><path class="cls-1" d="M1.45,18.65a10.49,10.49,0,0,1-.3-2.7c0-.23,0-.45,0-.67a3.25,3.25,0,0,0-.77.31A2.61,2.61,0,0,1,.11,14a9.85,9.85,0,0,1,3.09-.49c.27,0,.53,0,.75,0a1.05,1.05,0,0,1,.22.72,2.42,2.42,0,0,1-.19.93l-.62,0H2.82v.29a14.4,14.4,0,0,0,.31,3.16,4.85,4.85,0,0,1-1.06.12A2.48,2.48,0,0,1,1.45,18.65Zm-.94-3.4A3.22,3.22,0,0,1,1.28,15h.14v.14c0,.25,0,.52,0,.81a10.53,10.53,0,0,0,.25,2.5,2.62,2.62,0,0,0,.43,0,5.3,5.3,0,0,0,.77-.06,13.76,13.76,0,0,1-.26-3v-.52c.23,0,.58,0,.78,0h.47a2,2,0,0,0,.1-.66,1.26,1.26,0,0,0-.09-.49c-.2,0-.43,0-.64,0a10.33,10.33,0,0,0-2.87.41A1.75,1.75,0,0,0,.51,15.25Z"/><path class="cls-1" d="M4.33,18.63a1.84,1.84,0,0,1-.56-.08,13.22,13.22,0,0,1-.31-3.45V15h.43v.09a16.54,16.54,0,0,0,.2,3.1h.24a5.86,5.86,0,0,0,.81-.05A18.29,18.29,0,0,0,5.26,16a13.66,13.66,0,0,0-.12-1.89,2.34,2.34,0,0,0-.38,0l-.39,0h-.1v-.43h.08l.4,0a3,3,0,0,1,.7.09A9.08,9.08,0,0,1,5.68,16a19.1,19.1,0,0,1-.15,2.48v.07H5.46A6.11,6.11,0,0,1,4.33,18.63Z"/><path class="cls-1" d="M3.8,18.47a15.29,15.29,0,0,1-.25-3.37H3.8A16,16,0,0,0,4,18.28h.31a5.55,5.55,0,0,0,.89-.06A19,19,0,0,0,5.35,16a14.46,14.46,0,0,0-.13-2,2.25,2.25,0,0,0-.46,0,2.66,2.66,0,0,0-.39,0v-.25l.39,0a3.08,3.08,0,0,1,.68.08A13.06,13.06,0,0,1,5.6,16a20.36,20.36,0,0,1-.16,2.47,5.45,5.45,0,0,1-1.11.1A1.7,1.7,0,0,1,3.8,18.47Z"/><path class="cls-1" d="M7.1,18.63a2.24,2.24,0,0,1-1.8-.82l0-.07.33-.25.06.06a1.82,1.82,0,0,0,1.46.66,1.87,1.87,0,0,0,1.44-.62,2,2,0,0,0-.74-.66.93.93,0,0,1-.72.37c-.49,0-1-.45-1-1.29s.55-1.55,1.08-1.55a.92.92,0,0,1,.72.38,1.28,1.28,0,0,0,.55-.56,1.49,1.49,0,0,0-1.26-.64,1.89,1.89,0,0,0-1.54.85l0,.08-.34-.26,0-.07a2.29,2.29,0,0,1,1.88-1,1.91,1.91,0,0,1,1.7,1c-.08.59-.8,1-1.08,1.12l-.06,0,0-.06c-.18-.26-.38-.42-.53-.42-.32,0-.66.42-.66,1.13s.3.86.57.86a.67.67,0,0,0,.52-.36A1.89,1.89,0,0,1,9,17.68,2.18,2.18,0,0,1,7.1,18.63Z"/><path class="cls-1" d="M5.37,17.76l.2-.15a1.91,1.91,0,0,0,1.53.68,2,2,0,0,0,1.51-.64,1.5,1.5,0,0,0-.84-.82.85.85,0,0,1-.69.38c-.46,0-.9-.43-.9-1.2s.48-1.46,1-1.46a.89.89,0,0,1,.7.4,1.46,1.46,0,0,0,.66-.64,1.5,1.5,0,0,0-1.35-.76,2,2,0,0,0-1.61.89l-.2-.15a2.18,2.18,0,0,1,1.81-1,1.82,1.82,0,0,1,1.62,1c-.08.47-.74.87-1,1-.21-.31-.43-.46-.6-.46-.39,0-.75.48-.75,1.22s.32.95.66.95a.73.73,0,0,0,.59-.4,2.05,2.05,0,0,1,1.21,1.13,2.15,2.15,0,0,1-1.78.85A2.15,2.15,0,0,1,5.37,17.76Z"/><path class="cls-1" d="M11.77,18.8a2.52,2.52,0,0,1-.64-.07A8.49,8.49,0,0,1,10.76,16c0-.19,0-.37,0-.55a3.89,3.89,0,0,0-.62.27l-.08,0,0-.07A2.74,2.74,0,0,1,9.72,14a8.43,8.43,0,0,1,3.19-.57c.27,0,.53,0,.75,0a1,1,0,0,1,.3.81,2.4,2.4,0,0,1-.2,1l0,.05-.31,0-.36,0h-.45v.21a14.52,14.52,0,0,0,.3,3.14l0,.08-.08,0A4.73,4.73,0,0,1,11.77,18.8Zm-.56-3.66c0,.26,0,.52,0,.81a10.36,10.36,0,0,0,.24,2.48c0-.05.2-.05.34-.05a4.23,4.23,0,0,0,.66-.05,15.4,15.4,0,0,1-.24-2.9v-.61h.09c.23,0,.58,0,.79,0h.4a1.93,1.93,0,0,0,.07-.57,1.17,1.17,0,0,0-.08-.45,2.92,2.92,0,0,1-.55,0,10,10,0,0,0-2.85.41,2.19,2.19,0,0,0,.2.91,3.08,3.08,0,0,1,.71-.2l.24,0Z"/><path class="cls-1" d="M11.16,18.65a10,10,0,0,1-.31-2.7c0-.23,0-.45,0-.67a3.2,3.2,0,0,0-.76.31A2.61,2.61,0,0,1,9.81,14a9.87,9.87,0,0,1,3.1-.49c.27,0,.52,0,.75,0a1.1,1.1,0,0,1,.21.72,2.42,2.42,0,0,1-.19.93l-.61,0h-.54v.29a15.08,15.08,0,0,0,.3,3.16,4.85,4.85,0,0,1-1.06.12A2.34,2.34,0,0,1,11.16,18.65Zm-.94-3.4A3,3,0,0,1,11,15h.13v.14c0,.25,0,.52,0,.81a10.6,10.6,0,0,0,.24,2.5,2.69,2.69,0,0,0,.43,0,5.3,5.3,0,0,0,.77-.06,14.42,14.42,0,0,1-.26-3v-.52c.24,0,.58,0,.79,0h.46a1.76,1.76,0,0,0,.1-.66,1.26,1.26,0,0,0-.09-.49c-.19,0-.42,0-.63,0a10.41,10.41,0,0,0-2.88.41A1.75,1.75,0,0,0,10.22,15.25Z"/><path class="cls-1" d="M15.72,18.71l-.07-.42c0-.1,0-.2-.07-.3a3.67,3.67,0,0,0-.09-.43,6.64,6.64,0,0,1-1,.24c0,.15,0,.32,0,.47v.07l-.06,0a2.11,2.11,0,0,1-.76.12,2.17,2.17,0,0,1-.89-.18l0,0,0-.13A24.86,24.86,0,0,1,13.18,15l.33-.19.17-.08,0,.18A24.16,24.16,0,0,0,13.15,18a1.88,1.88,0,0,0,.53.06,2.41,2.41,0,0,0,.4,0c0-.22,0-.41,0-.57v-.08h.08a6.85,6.85,0,0,0,1.51-.3l.09,0,0,.09c.09.32.2.8.26,1.07v.08a2,2,0,0,0,1.07-.39c-.31-1.06-1.19-3.53-1.88-4.19h0l-.35,0a2.07,2.07,0,0,0-.79.14l-.31-.17-.12-.08.14-.07a2.62,2.62,0,0,1,1.08-.24,2.22,2.22,0,0,1,.55.08c.85.7,1.79,3.43,2.09,4.67a2.34,2.34,0,0,1-1.76.71ZM14.2,16.47a7.55,7.55,0,0,1,.45-1.87l.07-.17.09.16a8.16,8.16,0,0,1,.74,1.66l0,.08-.08,0c-.38.14-.66.22-.91.3l-.41.12Zm.6-1c-.05.21-.08.45-.12.7l.36-.11C15,15.87,14.88,15.67,14.8,15.49Z"/><path class="cls-1" d="M15.55,17.45a6.81,6.81,0,0,1-1.12.27,5.06,5.06,0,0,0,0,.55l-.07,0a1.61,1.61,0,0,1-.66.1,1.9,1.9,0,0,1-.84-.17l0-.09a23.12,23.12,0,0,1,.44-3.08l.29-.13a22.81,22.81,0,0,0-.49,3.14,1.81,1.81,0,0,0,.62.09,2.31,2.31,0,0,0,.49,0c0-.19,0-.44,0-.64a7.12,7.12,0,0,0,1.53-.3c.09.31.2.79.26,1.06h0l0,.15A2,2,0,0,0,17.2,18a12.75,12.75,0,0,0-1.87-4.32,3.05,3.05,0,0,0-.41-.05,2,2,0,0,0-.82.15l-.22-.16a2.5,2.5,0,0,1,1-.23,2,2,0,0,1,.52.07c.79.66,1.73,3.36,2,4.62a2.5,2.5,0,0,1-1.67.59l-.06-.35C15.68,18,15.64,17.76,15.55,17.45Zm-1.26-1a7.85,7.85,0,0,1,.44-1.83,8.13,8.13,0,0,1,.74,1.64l-1,.33-.17,0Zm.86-.34a9,9,0,0,0-.37-.91,7.54,7.54,0,0,0-.21,1.09Z"/><path class="cls-1" d="M18.52,18.63a2.37,2.37,0,0,1-1.27-.36l-.19-.13.31-.21a2.67,2.67,0,0,0,1.15.28A1.9,1.9,0,0,0,20,17.59a2.17,2.17,0,0,0-.73-.66,1,1,0,0,1-.72.37c-.49,0-1-.45-1-1.29,0-1,.57-1.54,1.11-1.54a.92.92,0,0,1,.74.39,1.19,1.19,0,0,0,.49-.58,1.47,1.47,0,0,0-1.26-.66,2.05,2.05,0,0,0-1.88,1.58l0,.09-.42-.13,0-.08A2.48,2.48,0,0,1,18.6,13.2a1.89,1.89,0,0,1,1.69,1,1.79,1.79,0,0,1-1,1.17l-.08,0,0-.08c-.18-.39-.38-.43-.52-.43-.33,0-.69.39-.69,1.11s.3.86.57.86a.66.66,0,0,0,.51-.36,2,2,0,0,1,1.37,1.17A2.17,2.17,0,0,1,18.52,18.63Z"/><path class="cls-1" d="M17.3,18.2l-.08-.06.2-.14a2,2,0,0,0,1.1.29A2,2,0,0,0,20,17.65a1.58,1.58,0,0,0-.83-.82.86.86,0,0,1-.69.38c-.46,0-.9-.43-.9-1.2s.48-1.45,1-1.45a.85.85,0,0,1,.71.42,1.27,1.27,0,0,0,.6-.67,1.49,1.49,0,0,0-1.34-.78,2.14,2.14,0,0,0-2,1.64l-.25-.07a2.41,2.41,0,0,1,2.21-1.81,1.77,1.77,0,0,1,1.61,1,1.8,1.8,0,0,1-1,1c-.18-.41-.4-.49-.6-.49-.41,0-.78.46-.78,1.2s.32.95.66.95a.73.73,0,0,0,.59-.4,2.15,2.15,0,0,1,1.2,1.13,2.15,2.15,0,0,1-1.78.85A2.37,2.37,0,0,1,17.3,18.2Z"/><path class="cls-1" d="M23.22,18.8a2.58,2.58,0,0,1-.64-.07A8.77,8.77,0,0,1,22.21,16c0-.19,0-.37,0-.55a3.61,3.61,0,0,0-.63.27l-.08,0,0-.07A2.74,2.74,0,0,1,21.17,14a8.43,8.43,0,0,1,3.19-.57c.27,0,.53,0,.76,0a1,1,0,0,1,.3.81,2.41,2.41,0,0,1-.21,1l0,.05-.31,0-.36,0h-.45v.21a14.52,14.52,0,0,0,.3,3.14l0,.08-.08,0A4.67,4.67,0,0,1,23.22,18.8Zm-.56-3.66c0,.26,0,.52,0,.81a10.36,10.36,0,0,0,.24,2.48c0-.05.2-.05.34-.05a4.23,4.23,0,0,0,.66-.05,15.37,15.37,0,0,1-.23-2.9v-.61h.08c.23,0,.58,0,.79,0h.4a1.93,1.93,0,0,0,.07-.57,1.45,1.45,0,0,0-.07-.45,3.09,3.09,0,0,1-.56,0,9.91,9.91,0,0,0-2.84.41,2,2,0,0,0,.19.91,3.08,3.08,0,0,1,.71-.2l.24,0Z"/><path class="cls-1" d="M22.61,18.65A10,10,0,0,1,22.3,16c0-.23,0-.45,0-.67a3.2,3.2,0,0,0-.76.31,2.61,2.61,0,0,1-.3-1.63,9.87,9.87,0,0,1,3.1-.49c.27,0,.53,0,.75,0a1.1,1.1,0,0,1,.22.72,2.43,2.43,0,0,1-.2.93l-.61,0H24v.29a14.4,14.4,0,0,0,.31,3.16,5,5,0,0,1-1.07.12A2.39,2.39,0,0,1,22.61,18.65Zm-.94-3.4a3.09,3.09,0,0,1,.77-.24h.13v.14c0,.25,0,.52,0,.81a10.6,10.6,0,0,0,.24,2.5,2.69,2.69,0,0,0,.43,0,5.19,5.19,0,0,0,.77-.06,14.48,14.48,0,0,1-.25-3v-.52c.23,0,.57,0,.78,0H25a1.76,1.76,0,0,0,.1-.66,1.51,1.51,0,0,0-.08-.49c-.2,0-.43,0-.64,0a10.41,10.41,0,0,0-2.88.41A1.75,1.75,0,0,0,21.67,15.25Z"/><path class="cls-1" d="M26.62,18.59a2.06,2.06,0,0,1-2.2-2.33,3.54,3.54,0,0,1,.16-1.08l.15-.32.34.07-.07.23a4.34,4.34,0,0,0-.15,1.1,1.68,1.68,0,0,0,1.77,1.91,1.91,1.91,0,0,0,1.94-2.1,2.22,2.22,0,0,0-1.9-2.4h0A1.89,1.89,0,0,0,25.6,14l-.08,0L25.41,14l-.09-.28.06,0a2.33,2.33,0,0,1,1.24-.39A2.61,2.61,0,0,1,29,16.07,2.32,2.32,0,0,1,26.62,18.59Zm0-1.33c-.66,0-1-.69-1-1.34s.3-1.36.95-1.37,1,.75,1,1.46c0,.56-.24,1.19-.89,1.25Zm0-2.29c-.34,0-.52.49-.52.95s.16.92.51.92.55-.45.55-.83-.22-1-.53-1v0Z"/><path class="cls-1" d="M24.51,16.26a3.59,3.59,0,0,1,.16-1.06l.11-.23L25,15l0,.14a4.26,4.26,0,0,0-.16,1.12,1.76,1.76,0,0,0,1.86,2,2,2,0,0,0,2-2.19,2.29,2.29,0,0,0-2-2.49,2,2,0,0,0-1.12.33l-.05,0-.07-.21a2.22,2.22,0,0,1,1.24-.38,2.52,2.52,0,0,1,2.22,2.73,2.22,2.22,0,0,1-2.27,2.43A2,2,0,0,1,24.51,16.26Zm2.12-1.62c.53,0,.87.69.87,1.37s-.25,1.11-.81,1.16-.92-.59-.92-1.25S26.05,14.65,26.63,14.64Zm0,2.28c.41,0,.58-.46.58-.91s-.24-1.14-.62-1.13-.61.53-.61,1S26.23,17,26.67,16.92Z"/><path class="cls-1" d="M29.45,18.69a4.57,4.57,0,0,1-1-.1h-.06l-.1-.07a3.55,3.55,0,0,1-.08-.76l.2-.39.16-.27v.31a6,6,0,0,0,.1.8,4,4,0,0,0,.73.07,4.26,4.26,0,0,0,2.17-.52,1.36,1.36,0,0,0-.25-.77,5.64,5.64,0,0,1-1.81.39h-.07l0-.07a2.58,2.58,0,0,1-.07-.72v-.07l.06,0a3.8,3.8,0,0,1,1.05-.12,3.05,3.05,0,0,0,0-.41.79.79,0,0,0,0-.23l-.16,0h-.33c-.12,0-.31,0-.55.06h-.09v-.08a2.56,2.56,0,0,1,.07-.93l0-.07.31,0,.26,0a6,6,0,0,1,1.4.18,1.9,1.9,0,0,0,.05-.44,1.14,1.14,0,0,0-.11-.49h-.9a8.32,8.32,0,0,0-1.76.15c0,.08-.08.43-.09.67v.32l-.36-.66a2.26,2.26,0,0,1,.13-.61,6.2,6.2,0,0,1,2.09-.29,8.16,8.16,0,0,1,1.14.08,1.25,1.25,0,0,1,.3.84,2.36,2.36,0,0,1-.22.9l0,.08-.09,0a4.74,4.74,0,0,0-1.54-.26h-.23l0,.2h.25a3.31,3.31,0,0,1,.77.07A1,1,0,0,1,31,16a3.39,3.39,0,0,1-.1.74l.53-.2A1.6,1.6,0,0,1,32,18,4.55,4.55,0,0,1,29.45,18.69ZM29.83,17c.2,0,.46-.1.74-.18a4.59,4.59,0,0,0-.76.06A.5.5,0,0,1,29.83,17Z"/><path class="cls-1" d="M28.51,18.5h-.09v-.07a2.92,2.92,0,0,1-.07-.68l.19-.34a6,6,0,0,0,.11.88,4.12,4.12,0,0,0,.81.08,4.31,4.31,0,0,0,2.21-.53,1.17,1.17,0,0,0-.27-.95,5.69,5.69,0,0,1-1.83.4,2.48,2.48,0,0,1-.07-.7,3.66,3.66,0,0,1,1.1-.12,3.8,3.8,0,0,0,.06-.5.69.69,0,0,0,0-.26,4.16,4.16,0,0,0-.57,0c-.12,0-.32,0-.56.06a2.58,2.58,0,0,1,.07-.89l.5,0a5.78,5.78,0,0,1,1.46.2,1.63,1.63,0,0,0,.08-.55,1.29,1.29,0,0,0-.12-.53,8.06,8.06,0,0,0-1-.06,8.39,8.39,0,0,0-1.79.16,3.75,3.75,0,0,0-.15.75l-.21-.38a5.11,5.11,0,0,1,.14-.54,7.65,7.65,0,0,1,2-.23,7.33,7.33,0,0,1,1.13.08,1.27,1.27,0,0,1,.22.75,2.4,2.4,0,0,1-.21.87A4.65,4.65,0,0,0,30.06,15h-.3l-.07.38h.36a3.09,3.09,0,0,1,.74.07,1,1,0,0,1,.1.48,3,3,0,0,1-.11.74,4.48,4.48,0,0,0-1.06.08,1.09,1.09,0,0,0,0,.25,5.83,5.83,0,0,0,1.68-.45A1.64,1.64,0,0,1,31.88,18a4.59,4.59,0,0,1-2.43.64A4.44,4.44,0,0,1,28.51,18.5Z"/></svg>