<svg id="Layer_1" data-name="Layer 1" xmlns="http://www.w3.org/2000/svg" viewBox="0 0 16 16"><defs><style>.cls-1{fill:#ffe200;}</style></defs><title>icon-16x16</title><path class="cls-1" d="M1,9.4a1.27,1.27,0,0,1-.32,0A4.18,4.18,0,0,1,.53,8a2.44,2.44,0,0,1,0-.27l-.32.13,0,0,0,0A1.33,1.33,0,0,1,0,7,4.1,4.1,0,0,1,1.6,6.69l.38,0a.5.5,0,0,1,.15.41A1.29,1.29,0,0,1,2,7.6v0H1.46v.11a6.86,6.86,0,0,0,.15,1.56v.05h0A2.35,2.35,0,0,1,1,9.4ZM.76,7.57c0,.13,0,.26,0,.4A5.42,5.42,0,0,0,.86,9.21s.1,0,.18,0l.33,0a7.4,7.4,0,0,1-.12-1.45V7.41h.64a1.14,1.14,0,0,0,0-.28.59.59,0,0,0,0-.23H1.6a5,5,0,0,0-1.42.21,1,1,0,0,0,.1.46,1.37,1.37,0,0,1,.36-.11H.76Z"/><path class="cls-1" d="M.73,9.32A5,5,0,0,1,.58,8c0-.11,0-.22,0-.33A1.69,1.69,0,0,0,.2,7.8,1.34,1.34,0,0,1,.06,7,4.91,4.91,0,0,1,1.6,6.74a2.24,2.24,0,0,1,.38,0,.53.53,0,0,1,.11.36,1.13,1.13,0,0,1-.1.46l-.31,0H1.41v.15a6.77,6.77,0,0,0,.16,1.57A2,2,0,0,1,1,9.35,1.19,1.19,0,0,1,.73,9.32ZM.26,7.62a1.59,1.59,0,0,1,.38-.11H.71v.07c0,.13,0,.26,0,.4A5.42,5.42,0,0,0,.82,9.23H1a1.71,1.71,0,0,0,.38,0,7.08,7.08,0,0,1-.13-1.48V7.45h.63A1.2,1.2,0,0,0,2,7.12a.55.55,0,0,0-.05-.25H1.6a4.76,4.76,0,0,0-1.43.21A.84.84,0,0,0,.26,7.62Z"/><path class="cls-1" d="M2.17,9.31a1.09,1.09,0,0,1-.28,0,6.65,6.65,0,0,1-.16-1.73v0H2v0a7.89,7.89,0,0,0,.1,1.55h.12a2.82,2.82,0,0,0,.4,0A9.11,9.11,0,0,0,2.63,8,6.86,6.86,0,0,0,2.57,7H2.14V6.83h0l.2,0a1.48,1.48,0,0,1,.35.05A4.3,4.3,0,0,1,2.84,8a9.73,9.73,0,0,1-.08,1.25v0h0A2.63,2.63,0,0,1,2.17,9.31Z"/><path class="cls-1" d="M1.9,9.23a7.59,7.59,0,0,1-.12-1.68H1.9A8.35,8.35,0,0,0,2,9.14h.16a3.37,3.37,0,0,0,.44,0A9.68,9.68,0,0,0,2.68,8a7.16,7.16,0,0,0-.07-1L2.38,7H2.19V6.87h.19a1.86,1.86,0,0,1,.34,0A6,6,0,0,1,2.8,8a9.34,9.34,0,0,1-.08,1.24,2.68,2.68,0,0,1-.55,0A.73.73,0,0,1,1.9,9.23Z"/><path class="cls-1" d="M3.55,9.31a1.14,1.14,0,0,1-.9-.4l0,0,.17-.13,0,0a.94.94,0,0,0,.73.32.94.94,0,0,0,.72-.3.93.93,0,0,0-.37-.33.47.47,0,0,1-.36.18c-.24,0-.49-.22-.49-.65s.27-.77.54-.77A.48.48,0,0,1,4,7.42a.66.66,0,0,0,.27-.28.73.73,0,0,0-.63-.32.94.94,0,0,0-.77.43l0,0-.17-.12,0,0a1.15,1.15,0,0,1,.94-.51,1,1,0,0,1,.85.5c0,.29-.4.5-.54.56h0l0,0c-.09-.13-.19-.21-.26-.21s-.33.21-.33.56.15.44.28.44a.35.35,0,0,0,.26-.19,1,1,0,0,1,.69.59A1.11,1.11,0,0,1,3.55,9.31Z"/><path class="cls-1" d="M2.69,8.88l.1-.08a1,1,0,0,0,.76.35,1,1,0,0,0,.76-.33.8.8,0,0,0-.42-.41.42.42,0,0,1-.35.19c-.23,0-.45-.21-.45-.6s.24-.72.5-.72a.46.46,0,0,1,.35.2.75.75,0,0,0,.33-.33.78.78,0,0,0-.68-.38,1,1,0,0,0-.8.45l-.1-.07a1.07,1.07,0,0,1,.9-.5.91.91,0,0,1,.81.48c0,.24-.37.43-.51.49-.11-.15-.22-.22-.3-.22s-.38.24-.38.6.16.48.33.48a.37.37,0,0,0,.3-.2,1,1,0,0,1,.6.57,1.08,1.08,0,0,1-.89.42A1.07,1.07,0,0,1,2.69,8.88Z"/><path class="cls-1" d="M5.89,9.4a1.27,1.27,0,0,1-.32,0A4.18,4.18,0,0,1,5.38,8a2.44,2.44,0,0,1,0-.27l-.31.13,0,0,0,0A1.33,1.33,0,0,1,4.86,7a4.1,4.1,0,0,1,1.59-.29l.38,0A.5.5,0,0,1,7,7.12a1.29,1.29,0,0,1-.1.48v0H6.31v.11a7.49,7.49,0,0,0,.15,1.56v.05h0A2.35,2.35,0,0,1,5.89,9.4ZM5.61,7.57c0,.13,0,.26,0,.4a4.82,4.82,0,0,0,.13,1.24s.09,0,.17,0l.33,0A7.4,7.4,0,0,1,6.1,7.72V7.41h.64a1.14,1.14,0,0,0,0-.28.59.59,0,0,0,0-.23H6.45A5,5,0,0,0,5,7.11a1.19,1.19,0,0,0,.1.46,1.37,1.37,0,0,1,.36-.11h.12Z"/><path class="cls-1" d="M5.58,9.32A5,5,0,0,1,5.43,8c0-.11,0-.22,0-.33a1.69,1.69,0,0,0-.39.16A1.34,1.34,0,0,1,4.91,7a4.91,4.91,0,0,1,1.54-.24,2.24,2.24,0,0,1,.38,0,.53.53,0,0,1,.11.36,1.13,1.13,0,0,1-.1.46l-.31,0H6.26v.15a6.77,6.77,0,0,0,.16,1.57,2,2,0,0,1-.53.06A1.19,1.19,0,0,1,5.58,9.32Zm-.47-1.7a1.59,1.59,0,0,1,.38-.11h.07v.07c0,.13,0,.26,0,.4a5.42,5.42,0,0,0,.12,1.26h.22a1.71,1.71,0,0,0,.38,0,7.08,7.08,0,0,1-.13-1.48V7.45h.63a1.2,1.2,0,0,0,.05-.33.55.55,0,0,0-.05-.25H6.45A4.76,4.76,0,0,0,5,7.07.84.84,0,0,0,5.11,7.62Z"/><path class="cls-1" d="M7.86,9.36l0-.22,0-.15c0-.06,0-.13,0-.21a3.85,3.85,0,0,1-.49.12,1.77,1.77,0,0,0,0,.23v0h0a1,1,0,0,1-.38.06,1,1,0,0,1-.44-.09h0V9.07a10.62,10.62,0,0,1,.22-1.55l.17-.1.08,0,0,.09A10.53,10.53,0,0,0,6.58,9a.88.88,0,0,0,.26,0L7,9c0-.1,0-.2,0-.28v0h0a4.26,4.26,0,0,0,.76-.15l0,0,0,.05C8,8.73,8,9,8,9.1v0a.91.91,0,0,0,.53-.2,7,7,0,0,0-.93-2.09H7.46a.91.91,0,0,0-.39.07l-.16-.09-.06,0,.07,0a1.23,1.23,0,0,1,.54-.12,1.31,1.31,0,0,1,.27,0A6.12,6.12,0,0,1,8.78,9a1.16,1.16,0,0,1-.88.36ZM7.1,8.23a4,4,0,0,1,.22-.93l0-.08,0,.08a3.87,3.87,0,0,1,.38.82v.05h0l-.45.15-.21.06Zm.3-.49-.06.35L7.52,8Q7.46,7.88,7.4,7.74Z"/><path class="cls-1" d="M7.78,8.73a4,4,0,0,1-.57.13v.27l0,0a1.06,1.06,0,0,1-.75,0v0a12.19,12.19,0,0,1,.22-1.53l.15-.07A10,10,0,0,0,6.53,9a.9.9,0,0,0,.31,0l.25,0c0-.1,0-.22,0-.32a3.28,3.28,0,0,0,.76-.15c0,.16.1.4.13.53H8v.07A1,1,0,0,0,8.6,9a6.38,6.38,0,0,0-.93-2.16.82.82,0,0,0-.21,0,.93.93,0,0,0-.41.08l-.11-.08a1.11,1.11,0,0,1,.52-.12.82.82,0,0,1,.26,0,6.4,6.4,0,0,1,1,2.3,1.22,1.22,0,0,1-.84.3l0-.18C7.84,9,7.82,8.88,7.78,8.73Zm-.63-.49a3.42,3.42,0,0,1,.22-.92,4.33,4.33,0,0,1,.36.82l-.5.16-.09,0Zm.42-.18a3.83,3.83,0,0,0-.18-.45,3.56,3.56,0,0,0-.11.55A2,2,0,0,0,7.57,8.06Z"/><path class="cls-1" d="M9.26,9.31a1.27,1.27,0,0,1-.63-.17l-.1-.07L8.68,9a1.24,1.24,0,0,0,.58.14A1,1,0,0,0,10,8.8a.93.93,0,0,0-.37-.33.47.47,0,0,1-.36.18c-.24,0-.49-.22-.49-.65s.29-.76.56-.76a.45.45,0,0,1,.36.19.58.58,0,0,0,.25-.29.74.74,0,0,0-.63-.33,1,1,0,0,0-.94.79v0l-.21-.06v0A1.26,1.26,0,0,1,9.3,6.6a.92.92,0,0,1,.84.51.88.88,0,0,1-.51.58l0,0v0c-.09-.2-.2-.22-.26-.22S9,7.64,9,8s.15.44.28.44a.35.35,0,0,0,.26-.19,1,1,0,0,1,.68.59A1.08,1.08,0,0,1,9.26,9.31Z"/><path class="cls-1" d="M8.65,9.1l0,0L8.71,9a1.08,1.08,0,0,0,.55.15A1,1,0,0,0,10,8.82a.82.82,0,0,0-.41-.41.42.42,0,0,1-.35.19C9,8.6,8.8,8.39,8.8,8s.25-.72.52-.72a.43.43,0,0,1,.35.21.66.66,0,0,0,.3-.34.75.75,0,0,0-.67-.38,1.06,1.06,0,0,0-1,.82l-.12,0a1.18,1.18,0,0,1,1.1-.9.89.89,0,0,1,.8.48.89.89,0,0,1-.48.52c-.1-.2-.21-.25-.3-.25s-.4.24-.4.6.16.48.33.48a.37.37,0,0,0,.3-.2,1.05,1.05,0,0,1,.6.57,1.09,1.09,0,0,1-.89.42A1.22,1.22,0,0,1,8.65,9.1Z"/><path class="cls-1" d="M11.61,9.4a1.33,1.33,0,0,1-.32,0A4.49,4.49,0,0,1,11.11,8V7.7l-.31.13,0,0,0,0A1.33,1.33,0,0,1,10.59,7a4.06,4.06,0,0,1,1.59-.29l.38,0a.53.53,0,0,1,.15.41,1.13,1.13,0,0,1-.11.48v0H12v.11a6.8,6.8,0,0,0,.16,1.56v.05h0A2.29,2.29,0,0,1,11.61,9.4Zm-.28-1.83c0,.13,0,.26,0,.4a5.42,5.42,0,0,0,.12,1.24s.1,0,.17,0l.33,0a7.4,7.4,0,0,1-.12-1.45V7.41h.64a1.14,1.14,0,0,0,0-.28.63.63,0,0,0,0-.23h-.28a4.9,4.9,0,0,0-1.42.21,1,1,0,0,0,.09.46,1.5,1.5,0,0,1,.36-.11h.12Z"/><path class="cls-1" d="M11.3,9.32A5.48,5.48,0,0,1,11.15,8c0-.11,0-.22,0-.33a1.64,1.64,0,0,0-.38.16A1.33,1.33,0,0,1,10.63,7a5,5,0,0,1,1.55-.24,2.17,2.17,0,0,1,.37,0,.53.53,0,0,1,.11.36,1.13,1.13,0,0,1-.1.46l-.3,0H12v.15a7.41,7.41,0,0,0,.15,1.57,2,2,0,0,1-.53.06A1.24,1.24,0,0,1,11.3,9.32Zm-.47-1.7a1.53,1.53,0,0,1,.39-.11h.07v.07c0,.13,0,.26,0,.4a5.36,5.36,0,0,0,.13,1.26h.21a1.63,1.63,0,0,0,.38,0,7.14,7.14,0,0,1-.12-1.48V7.45h.62a.91.91,0,0,0,0-.33.76.76,0,0,0,0-.25h-.32a4.83,4.83,0,0,0-1.44.21A.84.84,0,0,0,10.83,7.62Z"/><path class="cls-1" d="M13.31,9.3a1,1,0,0,1-1.1-1.17,1.77,1.77,0,0,1,.08-.54l.07-.16.17,0,0,.11a2.22,2.22,0,0,0-.08.55.83.83,0,0,0,.89.95,1,1,0,0,0,1-1.05,1.1,1.1,0,0,0-.95-1.19h0A1,1,0,0,0,12.8,7l0,0L12.7,7l0-.14,0,0a1.17,1.17,0,0,1,.62-.2A1.32,1.32,0,0,1,14.49,8,1.17,1.17,0,0,1,13.31,9.3Zm0-.67c-.33,0-.48-.35-.48-.67s.15-.68.47-.69.48.38.48.73-.11.6-.44.63Zm0-1.14c-.17,0-.26.24-.26.47s.08.46.26.46.27-.23.27-.42-.11-.51-.26-.51v0Z"/><path class="cls-1" d="M12.26,8.13a2,2,0,0,1,.07-.53l.06-.12.09,0,0,.07a1.94,1.94,0,0,0-.08.56.88.88,0,0,0,.93,1,1,1,0,0,0,1-1.1,1.14,1.14,0,0,0-1-1.24,1,1,0,0,0-.56.17h0l0-.11a1.08,1.08,0,0,1,.62-.19A1.26,1.26,0,0,1,14.44,8a1.11,1.11,0,0,1-1.13,1.22A1,1,0,0,1,12.26,8.13Zm1.05-.81c.27,0,.44.35.44.68s-.12.56-.41.58-.45-.29-.45-.62S13,7.32,13.31,7.32Zm0,1.14c.21,0,.3-.23.3-.46s-.13-.57-.32-.56S13,7.7,13,8,13.11,8.48,13.33,8.46Z"/><path class="cls-1" d="M14.72,9.34a2.28,2.28,0,0,1-.48-.05h0l-.05,0a3.43,3.43,0,0,1,0-.38l.1-.19.08-.14V8.7a2.43,2.43,0,0,0,0,.4,1.94,1.94,0,0,0,.36,0,2.18,2.18,0,0,0,1.09-.25.68.68,0,0,0-.13-.39,2.78,2.78,0,0,1-.9.19h0v0a1.31,1.31,0,0,1,0-.36v0h0a1.74,1.74,0,0,1,.52-.07,1.38,1.38,0,0,0,0-.2.41.41,0,0,0,0-.12H15l-.27,0H14.7v0a1.24,1.24,0,0,1,0-.46v0H15a3.38,3.38,0,0,1,.7.08,1.27,1.27,0,0,0,0-.22A.64.64,0,0,0,15.7,7h-.45a4.29,4.29,0,0,0-.88.07s0,.21,0,.34v.16l-.18-.33a1.41,1.41,0,0,1,.06-.31,3,3,0,0,1,1.05-.15,3.45,3.45,0,0,1,.57,0,.61.61,0,0,1,.15.41,1.18,1.18,0,0,1-.11.46l0,0,0,0A2.29,2.29,0,0,0,15,7.56h-.12v.1H15a1.46,1.46,0,0,1,.39,0,.5.5,0,0,1,.08.28,2.07,2.07,0,0,1-.05.37l.26-.1A.79.79,0,0,1,16,9,2.29,2.29,0,0,1,14.72,9.34Zm.19-.86a2.27,2.27,0,0,0,.37-.08,2.36,2.36,0,0,0-.38,0A.13.13,0,0,1,14.91,8.48Z"/><path class="cls-1" d="M14.25,9.25h0v0a1.59,1.59,0,0,1,0-.34l.09-.17a3.62,3.62,0,0,0,.06.44,2.46,2.46,0,0,0,.4,0,2.17,2.17,0,0,0,1.11-.27.58.58,0,0,0-.14-.47,2.69,2.69,0,0,1-.91.2,1.25,1.25,0,0,1,0-.35,1.85,1.85,0,0,1,.55-.06,1.9,1.9,0,0,0,0-.25.53.53,0,0,0,0-.13l-.29,0-.28,0a1.2,1.2,0,0,1,0-.45l.25,0a2.92,2.92,0,0,1,.73.1.82.82,0,0,0,0-.28A.71.71,0,0,0,15.74,7a4.15,4.15,0,0,0-.49,0,3.93,3.93,0,0,0-.9.08,1.87,1.87,0,0,0-.07.37l-.11-.19a1.46,1.46,0,0,1,.08-.27,4.06,4.06,0,0,1,1-.11,3.6,3.6,0,0,1,.56,0,.64.64,0,0,1,.11.37,1.17,1.17,0,0,1-.1.44A2.44,2.44,0,0,0,15,7.51h-.15l0,.19H15a1.82,1.82,0,0,1,.37,0,.52.52,0,0,1,0,.24,1.74,1.74,0,0,1,0,.37,2.2,2.2,0,0,0-.53,0,.59.59,0,0,0,0,.13,3.29,3.29,0,0,0,.84-.23.84.84,0,0,1,.22.69,2.3,2.3,0,0,1-1.22.32A2.26,2.26,0,0,1,14.25,9.25Z"/></svg>